<svg width="209" height="209" viewBox="0 0 209 209" fill="none" xmlns="http://www.w3.org/2000/svg">
<path opacity="0.2" d="M169 89C169 104.823 164.308 120.29 155.518 133.446C146.727 146.602 134.233 156.855 119.615 162.91C104.997 168.965 88.9113 170.55 73.3928 167.463C57.8743 164.376 43.6197 156.757 32.4315 145.569C21.2433 134.38 13.624 120.126 10.5372 104.607C7.4504 89.0887 9.03466 73.0034 15.0897 58.3853C21.1447 43.7672 31.3985 31.2729 44.5544 22.4824C57.7103 13.6919 73.1775 9 89 9C99.5058 9 109.909 11.0693 119.615 15.0896C129.321 19.11 138.14 25.0028 145.569 32.4315C152.997 39.8601 158.89 48.6793 162.91 58.3853C166.931 68.0914 169 78.4943 169 89Z" fill="white"/>
<path d="M206.66 195.34L156.6 145.28C171.138 127.844 178.394 105.475 176.859 82.8254C175.323 60.1759 165.115 38.9903 148.357 23.6758C131.6 8.36136 109.583 0.0972291 86.8868 0.602637C64.191 1.10804 42.5638 10.3441 26.5043 26.3893C10.4449 42.4346 1.18975 64.0536 0.664284 86.749C0.138818 109.444 8.38349 131.469 23.6831 148.24C38.9828 165.011 60.1594 175.238 82.8075 176.794C105.456 178.349 127.831 171.112 145.28 156.59L195.34 206.66C196.083 207.403 196.966 207.993 197.937 208.395C198.908 208.797 199.949 209.004 201 209.004C202.051 209.004 203.092 208.797 204.063 208.395C205.034 207.993 205.917 207.403 206.66 206.66C207.403 205.917 207.993 205.034 208.395 204.063C208.797 203.092 209.004 202.051 209.004 201C209.004 199.949 208.797 198.908 208.395 197.937C207.993 196.966 207.403 196.083 206.66 195.34ZM17 89C17 74.7597 21.2227 60.8393 29.1342 48.9989C37.0456 37.1586 48.2905 27.9302 61.4468 22.4807C74.6031 17.0312 89.0798 15.6053 103.046 18.3835C117.013 21.1616 129.842 28.0189 139.912 38.0883C149.981 48.1577 156.838 60.9869 159.617 74.9535C162.395 88.9201 160.969 103.397 155.519 116.553C150.07 129.709 140.841 140.954 129.001 148.866C117.161 156.777 103.24 161 89 161C69.9109 160.979 51.6097 153.386 38.1117 139.888C24.6136 126.39 17.0212 108.089 17 89Z" fill="#B90FC8"/>
</svg>
